<?xml version="1.0" encoding="utf-8"?>
<svg fill="#000000" width="800px" height="800px" viewBox="0 0 32 32" xmlns="http://www.w3.org/2000/svg">
  <path d="M 15.853 0.76 C 14.499 4.073 13.686 6.244 12.181 9.463 C 13.103 10.442 14.238 11.583 16.077 12.869 C 14.098 12.051 12.749 11.234 11.738 10.385 C 9.811 14.411 6.79 20.135 0.665 31.145 C 5.483 28.364 9.212 26.65 12.691 25.994 C 12.545 25.353 12.457 24.661 12.462 23.931 L 12.467 23.78 C 12.545 20.691 14.149 18.322 16.05 18.483 C 17.951 18.644 19.43 21.275 19.357 24.363 C 19.341 24.941 19.274 25.498 19.159 26.019 C 22.602 26.691 26.294 28.399 31.044 31.144 C 30.106 29.42 29.273 27.863 28.471 26.384 C 27.216 25.41 25.903 24.139 23.231 22.764 C 25.07 23.243 26.382 23.795 27.408 24.41 C 19.288 9.301 18.637 7.29 15.851 0.759 L 15.853 0.76 Z"/>
</svg>