<?xml version="1.0" encoding="utf-8"?>
<svg version="1.1" viewBox="0 0 320 320" xmlns="http://www.w3.org/2000/svg">
  <defs>
    <style>.a{fill:#88171a;}.b{fill:#231f20;}</style>
  </defs>
  <title>wireguard</title>
  <path class="a" d="M 308.002 159.452 C 308.002 159.452 314.942 13.892 154.962 13.892 C 13.482 13.892 9.062 153.522 9.062 153.522 C 9.062 153.522 -11.749 313.892 158.222 313.892 C 321.242 313.892 308.002 159.452 308.002 159.452 Z M 110.202 108.589 C 140.219 90.225 178.568 101.449 192.937 129.065 C 195.661 134.299 196.007 142.356 194.282 147.847 C 188.327 166.803 174.268 177.434 154.97 181.95 C 160.659 177.08 165.188 171.556 166.629 163.925 C 168.147 156.612 166.497 148.998 162.087 142.969 C 155.061 133.317 142.49 129.487 131.276 133.58 C 119.395 138.091 112.887 148.934 114.06 162.263 C 115.149 174.644 124.544 182.668 142.121 185.716 C 139.494 187.107 137.47 188.131 135.491 189.233 C 127.439 193.645 120.432 199.739 114.947 207.101 C 113.163 209.51 111.936 209.704 109.22 208.043 C 73.882 186.433 71.611 132.199 110.202 108.59 L 110.202 108.589 Z M 83.753 242.119 C 78.076 243.56 72.575 245.694 66.772 247.597 C 69.611 228.446 92.037 210.809 111.002 212.821 C 105.508 220.39 102.3 229.377 101.76 238.714 C 95.458 239.875 89.519 240.655 83.753 242.119 Z M 204.543 55.139 C 210.153 55.346 215.773 55.26 221.387 55.393 C 222.789 55.486 224.181 55.68 225.555 55.974 C 224.299 57.902 222.882 59.719 221.319 61.407 C 219.312 63.277 217.045 65.106 214.153 62.263 C 213.457 61.579 211.814 61.736 210.604 61.72 C 205.022 61.647 199.432 61.469 193.858 61.679 C 189.021 61.834 184.201 62.326 179.433 63.152 C 178.54 63.313 177.203 66.284 177.614 67.379 C 178.583 69.964 179.997 72.815 182.092 74.469 C 189.832 80.579 198.064 86.065 205.84 92.133 C 213.396 98.03 220.429 104.491 224.715 113.386 C 230.299 124.976 230.462 137.129 228.054 149.336 C 224.034 169.714 213.721 186.597 197.022 198.86 C 190.293 203.801 181.962 206.605 174.255 210.155 C 167.477 213.277 160.5 215.966 153.706 219.056 C 141.457 224.625 134.573 237.921 136.598 251.744 C 138.456 264.429 149.585 275.015 162.333 277.2 C 177.625 279.821 193.404 269.883 197.145 254.34 C 201.352 236.862 191.855 221.257 174.08 216.527 C 173.297 216.318 172.511 216.121 170.879 215.7 C 175.634 213.575 179.74 212.062 183.532 209.975 C 190.146 206.336 196.639 202.482 203.013 198.413 C 204.887 197.214 205.899 197.214 207.498 198.596 C 219.723 209.166 227.016 222.314 229.061 238.435 C 232.445 265.119 219.814 289.633 195.989 302.197 C 159.129 321.636 114.024 299.51 105.883 258.645 C 98.909 223.642 123.613 191.891 153.345 185.761 C 166.132 183.124 177.825 177.801 186.915 167.954 C 192.78 161.6 195.623 156.148 196.592 153.688 C 198.396 149.077 199.319 144.169 199.313 139.219 C 199.118 134.936 198.112 130.728 196.348 126.821 C 193.244 119.746 181.353 108.491 178.409 106.117 L 150.409 84.196 C 149.421 83.383 148.309 83.442 145.901 83.605 C 143.04 83.799 135.726 84.204 132.57 83.377 C 135.123 81.445 142.083 78.632 145.072 76.37 C 135.998 70.24 125.642 72.454 116.131 70.624 C 118.33 66.528 129.212 60.234 135.401 59.533 C 135.034 56.077 134.47 52.644 133.713 49.252 C 133.335 47.86 131.782 46.511 130.427 45.716 C 127.141 43.79 123.657 42.2 119.878 40.284 C 123.262 38.097 127.182 36.884 131.21 36.778 C 135.025 36.633 138.842 37.005 142.558 37.884 C 149.3 39.424 154.682 38.419 160.046 33.836 C 155.824 32.136 151.602 30.582 147.508 28.745 C 143.473 26.906 139.541 24.85 135.729 22.587 C 146.351 24.062 156.625 28.045 167.486 26.59 C 167.578 26.097 167.671 25.603 167.763 25.109 C 159.644 23.219 151.524 21.33 142.534 19.237 C 157.574 17.86 171.576 17.633 184.835 24.091 C 188.566 25.908 192.47 27.413 196.046 29.488 C 197.79 30.501 198.965 32.496 200.396 34.048 C 201.532 35.28 202.445 36.931 203.842 37.674 C 209.142 40.492 214.976 40.603 220.92 40.462 C 220.964 39.785 221.006 39.151 221.051 38.469 C 227.033 40.338 233.766 47.237 233.755 52.275 C 224.063 52.275 214.381 52.238 204.699 52.329 C 203.664 52.338 202.636 53.094 201.605 53.504 C 202.585 54.075 203.548 55.103 204.547 55.14 L 204.543 55.139 Z"/>
  <path class="a" d="M 192.042 45.225 C 191.202 45.752 191.107 46.941 191.853 47.594 C 192.468 48.677 193.851 49.047 194.925 48.416 C 195.858 47.945 196.773 47.445 197.9 46.849 C 196.993 46.074 196.264 45.435 195.515 44.817 C 194.197 43.731 193.104 44.413 192.042 45.225 L 192.042 45.225 Z"/>
</svg>