<?xml version="1.0" encoding="utf-8"?>
<svg xmlns="http://www.w3.org/2000/svg" viewBox="0 0 24 24" xmlns:bx="https://boxy-svg.com">
  <defs>
    <bx:export>
      <bx:file format="png" path="VPN.png" dpi="353" width="1000" height="1000"/>
      <bx:file format="png" width="1000" height="1000" path="VPN2.png"/>
    </bx:export>
  </defs>
  <line style="fill: rgb(216, 216, 216); stroke-width: 2px; stroke: rgb(99, 144, 199); stroke-dasharray: 1; transform-box: fill-box; transform-origin: 50% 50%;" x1="8.964" y1="8.613" x2="15.964" y2="15.613" transform="matrix(0.927184, -0.374607, 0.374607, 0.927184, 0, -0.000001)"/>
  <path d="M 5.694 10.21 C 5.334 9.84 4.834 9.62 4.284 9.62 C 3.179 9.62 2.284 10.515 2.284 11.62 C 2.284 12.725 3.179 13.62 4.284 13.62 C 4.834 13.62 5.334 13.4 5.694 13.03 L 7.114 14.45 C 6.384 15.17 5.384 15.62 4.284 15.62 C 2.075 15.62 0.284 13.829 0.284 11.62 C 0.284 9.411 2.075 7.62 4.284 7.62 C 5.394 7.62 6.394 8.07 7.114 8.79 L 9.874 11.55 L 8.454 12.97 L 5.694 10.21 Z" style="fill: rgb(99, 144, 199); transform-box: fill-box; transform-origin: 50% 50%;" transform="matrix(0.927184, -0.374607, 0.374607, 0.927184, 0, 0)"/>
  <path d="M 19.637 10.844 C 19.277 10.474 18.777 10.254 18.227 10.254 C 17.122 10.254 16.227 11.149 16.227 12.254 C 16.227 13.359 17.122 14.254 18.227 14.254 C 18.777 14.254 19.277 14.034 19.637 13.664 L 21.057 15.084 C 20.327 15.804 19.327 16.254 18.227 16.254 C 16.018 16.254 14.227 14.463 14.227 12.254 C 14.227 10.045 16.018 8.254 18.227 8.254 C 19.337 8.254 20.337 8.704 21.057 9.424 L 23.817 12.184 L 22.397 13.604 L 19.637 10.844 Z" style="fill: rgb(99, 144, 199); transform-box: fill-box; transform-origin: 50% 50%;" transform="matrix(-0.927184, 0.374607, -0.374607, -0.927184, 0.000005, 0.000001)"/>
</svg>