<?xml version="1.0" encoding="utf-8"?>
<svg version="1.1" viewBox="0 0 320 320" xmlns="http://www.w3.org/2000/svg">
  <defs>
    <style>.a{fill:#88171a;}.b{fill:#231f20;}</style>
  </defs>
  <title>wireguard</title>
  <path class="a" d="M 308.499 157.441 C 308.499 157.441 315.438 11.881 155.459 11.881 C 13.979 11.881 9.559 151.511 9.559 151.511 C 9.559 151.511 -11.252 311.881 158.719 311.881 C 321.739 311.881 308.499 157.441 308.499 157.441 Z M 110.699 106.578 C 140.716 88.214 179.065 99.438 193.434 127.054 C 196.157 132.288 196.503 140.345 194.778 145.836 C 188.824 164.792 174.764 175.423 155.466 179.939 C 161.156 175.068 165.684 169.545 167.125 161.914 C 168.644 154.601 166.993 146.986 162.583 140.958 C 155.557 131.306 142.987 127.475 131.772 131.569 C 119.891 136.08 113.383 146.923 114.556 160.252 C 115.646 172.633 125.04 180.657 142.617 183.705 C 139.99 185.095 137.967 186.119 135.987 187.222 C 127.935 191.633 120.928 197.728 115.443 205.09 C 113.659 207.498 112.433 207.692 109.716 206.031 C 74.378 184.421 72.107 130.187 110.698 106.578 L 110.699 106.578 Z M 84.25 240.108 C 78.573 241.549 73.072 243.682 67.269 245.586 C 70.107 226.435 92.534 208.798 111.499 210.81 C 106.004 218.379 102.797 227.365 102.257 236.703 C 95.955 237.863 90.016 238.644 84.25 240.108 Z M 205.04 53.128 C 210.65 53.334 216.27 53.249 221.884 53.382 C 223.285 53.474 224.678 53.668 226.051 53.963 C 224.796 55.89 223.379 57.708 221.815 59.396 C 219.808 61.266 217.541 63.094 214.649 60.252 C 213.954 59.568 212.311 59.725 211.101 59.709 C 205.518 59.636 199.929 59.457 194.355 59.668 C 189.518 59.823 184.698 60.315 179.93 61.141 C 179.036 61.301 177.7 64.272 178.11 65.368 C 179.08 67.953 180.494 70.804 182.588 72.457 C 190.329 78.567 198.56 84.053 206.336 90.121 C 213.892 96.018 220.925 102.479 225.211 111.374 C 230.796 122.964 230.958 135.117 228.55 147.324 C 224.53 167.702 214.217 184.585 197.518 196.848 C 190.789 201.789 182.458 204.594 174.751 208.143 C 167.973 211.266 160.996 213.955 154.202 217.044 C 141.953 222.614 135.069 235.909 137.094 249.732 C 138.953 262.417 150.081 273.003 162.829 275.188 C 178.121 277.81 193.9 267.872 197.641 252.328 C 201.848 234.85 192.351 219.245 174.576 214.515 C 173.793 214.307 173.008 214.11 171.375 213.688 C 176.13 211.564 180.236 210.05 184.028 207.964 C 190.642 204.324 197.136 200.47 203.509 196.402 C 205.383 195.203 206.396 195.202 207.994 196.584 C 220.219 207.154 227.512 220.302 229.557 236.423 C 232.942 263.107 220.31 287.621 196.485 300.185 C 159.625 319.624 114.52 297.499 106.379 256.633 C 99.405 221.63 124.109 189.879 153.841 183.749 C 166.628 181.113 178.321 175.79 187.411 165.942 C 193.276 159.588 196.12 154.136 197.088 151.676 C 198.893 147.066 199.816 142.158 199.809 137.207 C 199.615 132.924 198.608 128.717 196.844 124.809 C 193.74 117.734 181.849 106.479 178.905 104.105 L 150.905 82.184 C 149.917 81.372 148.806 81.431 146.397 81.594 C 143.536 81.788 136.222 82.193 133.066 81.366 C 135.619 79.434 142.579 76.621 145.568 74.359 C 136.495 68.229 126.138 70.443 116.627 68.613 C 118.826 64.517 129.708 58.223 135.897 57.522 C 135.53 54.065 134.967 50.633 134.21 47.241 C 133.832 45.849 132.278 44.5 130.923 43.705 C 127.637 41.778 124.154 40.188 120.374 38.272 C 123.758 36.085 127.679 34.872 131.706 34.767 C 135.521 34.622 139.339 34.994 143.054 35.872 C 149.796 37.413 155.178 36.407 160.542 31.824 C 156.32 30.124 152.099 28.571 148.004 26.734 C 143.97 24.895 140.038 22.839 136.225 20.575 C 146.847 22.051 157.121 26.034 167.982 24.579 C 168.075 24.085 168.167 23.592 168.259 23.098 C 160.14 21.208 152.02 19.318 143.03 17.226 C 158.07 15.849 172.072 15.622 185.331 22.08 C 189.062 23.897 192.966 25.401 196.542 27.477 C 198.287 28.489 199.461 30.485 200.892 32.036 C 202.029 33.269 202.942 34.92 204.338 35.663 C 209.638 38.481 215.472 38.592 221.416 38.451 C 221.46 37.774 221.502 37.139 221.547 36.457 C 227.529 38.327 234.262 45.225 234.251 50.263 C 224.56 50.263 214.877 50.226 205.195 50.317 C 204.16 50.327 203.132 51.083 202.101 51.493 C 203.081 52.063 204.044 53.092 205.044 53.129 L 205.04 53.128 Z" style="fill: rgb(178, 178, 178);"/>
  <path class="a" d="M 177.153 19.086 C 176.313 19.613 176.218 20.801 176.964 21.455 C 177.579 22.538 178.962 22.908 180.036 22.277 C 180.969 21.806 181.884 21.306 183.011 20.71 C 182.104 19.935 181.375 19.296 180.626 18.678 C 179.308 17.592 178.215 18.274 177.153 19.086 Z" style="fill: rgb(178, 178, 178);"/>
</svg>